<?xml version="1.0" standalone="no"?>
<!DOCTYPE svg PUBLIC "-//W3C//DTD SVG 20010904//EN"
 "http://www.w3.org/TR/2001/REC-SVG-20010904/DTD/svg10.dtd">
<svg version="1.0" xmlns="http://www.w3.org/2000/svg"
 width="1024.000000pt" height="1024.000000pt" viewBox="0 0 1024.000000 1024.000000"
 preserveAspectRatio="xMidYMid meet">
<metadata>
Created by potrace 1.14, written by Peter Selinger 2001-2017
</metadata>
<g transform="translate(0.000000,1024.000000) scale(0.100000,-0.100000)"
fill="#000000" stroke="none">
<path d="M0 5120 l0 -5120 5120 0 5120 0 0 3247 0 3247 -177 -175 c-98 -97
-191 -180 -208 -187 -54 -20 -2510 -722 -2528 -722 -54 0 -106 63 -94 112 29
117 718 2531 727 2549 7 13 494 507 1084 1097 l1071 1072 -5058 0 -5057 0 0
-5120z m5524 2066 c172 -115 317 -236 481 -400 258 -259 433 -502 585 -810
183 -374 263 -696 264 -1061 0 -188 -16 -329 -54 -474 l-19 -74 33 -41 c151
-185 278 -466 328 -720 37 -192 24 -445 -23 -454 -10 -2 -29 21 -55 65 -46 81
-170 209 -236 245 -118 65 -150 72 -323 72 -146 0 -168 -3 -250 -28 -49 -15
-171 -68 -269 -117 -238 -118 -409 -173 -661 -211 -143 -21 -480 -16 -643 10
-628 101 -1210 403 -1684 876 -158 157 -356 403 -433 535 -10 17 -2 13 80 -44
171 -120 450 -266 655 -343 612 -230 1234 -226 1725 12 164 80 159 70 69 141
-349 273 -819 729 -1204 1170 -281 322 -728 874 -830 1025 -73 109 -80 113
147 -84 381 -331 970 -780 1393 -1063 289 -192 286 -192 117 -5 -263 292 -584
685 -849 1042 -125 169 -284 393 -300 425 -6 11 63 -52 153 -140 531 -519
1164 -1041 1754 -1449 161 -112 334 -221 340 -214 11 12 67 213 85 303 31 154
39 460 16 635 -51 388 -199 767 -442 1138 -40 61 -71 112 -67 112 3 0 56 -33
117 -74z"/>
<path d="M9211 9046 l-1025 -1025 201 -208 c111 -114 212 -218 225 -230 l24
-22 802 802 802 802 -2 453 -3 452 -1024 -1024z"/>
<path d="M9507 8142 l-727 -727 228 -228 227 -227 503 503 502 502 -2 453 -3
452 -728 -728z"/>
<path d="M8087 7804 c-41 -138 -267 -949 -267 -959 0 -10 598 -670 759 -838
l27 -27 511 147 512 146 -119 126 c-65 69 -411 418 -768 775 -516 515 -651
645 -655 630z"/>
<path d="M9807 7242 l-427 -427 223 -223 222 -222 208 208 207 207 -2 443 -3
442 -428 -428z"/>
</g>
</svg>
