<svg xmlns="http://www.w3.org/2000/svg" width="54" height="54"><path d="M0 0h54v54H0z" style="fill:#0d6efd;fill-opacity:1;stroke:none"/><path d="M35.762 30.957c.035-.121.07-.242.101-.363 1.34-5.332-1.925-11.637-7.453-14.953 2.422 3.28 3.492 7.257 2.543 10.734-.086.313-.187.61-.3.898a7.8 7.8 0 0 0-.485-.285s-5.496-3.394-11.453-9.398c-.156-.156 3.176 4.765 6.957 8.762-1.781-1-6.746-4.614-9.89-7.493.382.645.843 1.266 1.347 1.864 2.629 3.328 6.05 7.437 10.156 10.593-2.883 1.762-6.957 1.903-11.012 0a16.443 16.443 0 0 1-2.82-1.68 16.883 16.883 0 0 0 7.578 6.497c3.84 1.652 7.657 1.539 10.496.027v.004a.36.36 0 0 0 .032-.02c.125-.066.253-.136.375-.21 1.375-.707 4.054-1.403 5.492 1.402.355.687 1.11-2.965-1.66-6.375-.004 0-.004 0-.004-.004Zm0 0" style="stroke:none;fill-rule:nonzero;fill:#fff;fill-opacity:1"/><path d="M112.21 243.778 41.84 493.185" style="fill:none;stroke-width:20;stroke-linecap:round;stroke-linejoin:miter;stroke:#fff;stroke-opacity:1;stroke-miterlimit:4" transform="matrix(.05273 0 0 .05273 36.438 1.371)"/><path d="M290.025 422 41.803 493.185" style="fill:none;stroke-width:20;stroke-linecap:round;stroke-linejoin:miter;stroke:#fff;stroke-opacity:1;stroke-miterlimit:4" transform="matrix(-.05273 0 0 -.05273 53.896 49.676)"/><path d="M113.025 244 290.21 422.222M83.025 368.963l82.222 89.26" style="fill:none;stroke-width:20;stroke-linecap:round;stroke-linejoin:miter;stroke:#fff;stroke-opacity:1;stroke-miterlimit:4" transform="matrix(.05273 0 0 .05273 36.438 1.371)"/><path d="m81.359 399.282 62.103 103.49-124.21.04Zm0 0" style="fill-rule:evenodd;fill:#fff;fill-opacity:1;stroke-width:1;stroke-linecap:butt;stroke-linejoin:miter;stroke:#fff;stroke-opacity:1;stroke-miterlimit:4" transform="scale(-.05273) rotate(47 721.163 -994.686)"/><path d="m355.025 0-242 242M417.025 58l-242 242M475.025 120l-242 242M534.062 179.037 291.988 420.963" style="fill:none;stroke-width:20;stroke-linecap:round;stroke-linejoin:miter;stroke:#fff;stroke-opacity:1;stroke-miterlimit:4" transform="matrix(.05273 0 0 .05273 36.438 1.371)"/></svg>