<svg xmlns="http://www.w3.org/2000/svg" width="1024" height="1024"><g fill="none" fill-rule="nonzero"><path fill="#0D6EFD" d="M0 0h1024v1024H0z"/><path fill="#FFF" d="M673.064 575.044c.614-2.094 1.25-4.178 1.79-6.324 23.1-92.04-33.28-200.857-128.688-258.151 41.813 56.68 60.295 125.331 43.87 185.37-1.464 5.353-3.227 10.496-5.174 15.492-2.115-1.386-4.775-2.965-8.349-4.933 0 0-94.909-58.602-197.773-162.25-2.697-2.723 54.854 82.259 120.166 151.261-30.767-17.276-116.518-79.671-170.81-129.362 6.67 11.125 14.604 21.836 23.32 32.148 45.34 57.494 104.46 128.438 175.292 182.91-49.769 30.457-120.092 32.824-190.106.03-17.317-8.117-33.6-17.91-48.666-29.035 29.638 47.408 75.287 88.309 130.844 112.191 66.251 28.475 132.135 26.543 181.206.467l-.037.058c.168-.105.352-.215.525-.32a157.652 157.652 0 0 0 6.517-3.673c23.704-12.17 69.956-24.177 94.81 24.186 6.118 11.902 19.127-51.175-28.695-110.018-.016-.021-.026-.032-.042-.047ZM255.74 271.521h-68.291L92 744.285h68.555zM952.74 271.521h-68.291L789 744.285h68.555z"/></g></svg>