<svg xmlns="http://www.w3.org/2000/svg" width="82" height="48"><g fill="#0D6EFD" fill-rule="nonzero" transform="translate(2 2)"><rect width="78" height="44" fill="none" stroke="#0D6EFD" stroke-width="4" rx="8"/><path d="M16.652 32h12.262v-2.652h-9.189V12.271h-3.073zM38.638 32.333c1.56 0 2.904-.24 4.029-.718 1.125-.48 1.99-1.16 2.595-2.043.604-.883.906-1.925.906-3.127v-.013c0-1.523-.462-2.722-1.386-3.598-.924-.876-2.406-1.532-4.446-1.967l-2.15-.456c-1.23-.264-2.135-.63-2.716-1.1-.58-.468-.87-1.07-.87-1.807v-.014c0-.576.163-1.08.49-1.511.328-.432.793-.768 1.395-1.01.601-.242 1.308-.363 2.12-.363.781 0 1.469.118 2.062.353.594.235 1.073.57 1.44 1.005.365.435.593.96.681 1.578l.025.182H45.8l-.013-.223c-.07-1.104-.41-2.074-1.023-2.91-.612-.836-1.441-1.487-2.488-1.953-1.047-.466-2.256-.7-3.628-.7-1.388 0-2.62.24-3.695.72-1.077.481-1.92 1.147-2.532 1.997-.612.851-.921 1.84-.929 2.969v.013c0 1.457.474 2.638 1.42 3.542.947.905 2.386 1.564 4.315 1.977l2.15.456c1.31.283 2.251.658 2.824 1.125.574.468.86 1.098.86 1.89v.014c0 .611-.175 1.145-.526 1.6-.35.457-.847.808-1.488 1.055-.642.246-1.404.37-2.285.37-.874 0-1.649-.12-2.324-.36-.676-.24-1.22-.58-1.632-1.019a2.904 2.904 0 0 1-.764-1.56l-.027-.18h-2.987l.013.204c.08 1.153.443 2.148 1.088 2.984.646.836 1.523 1.478 2.633 1.926 1.11.448 2.402.672 3.876.672ZM50.83 25.262h5.818c1.294 0 2.432-.272 3.413-.818a5.905 5.905 0 0 0 2.304-2.283c.555-.977.833-2.11.833-3.396v-.028c0-1.287-.278-2.416-.833-3.388a5.87 5.87 0 0 0-2.304-2.267c-.981-.54-2.119-.81-3.413-.81H50.83v2.586h5.05c1.33 0 2.36.34 3.092 1.022.732.681 1.098 1.641 1.098 2.88v.027c0 1.229-.366 2.187-1.098 2.874-.732.687-1.763 1.03-3.092 1.03h-5.05v2.571ZM49.293 32h3.073V12.271h-3.073V32Z"/></g></svg>