<svg xmlns="http://www.w3.org/2000/svg" width="81" height="47"><g fill="none" fill-rule="evenodd" transform="translate(6 6)"><g fill="#0D6EFD" fill-rule="nonzero"><path d="M28.059 23.652c0-.79-.567-1.347-1.377-1.347h-4.15V13.31c0-1.104-.587-1.739-1.622-1.739-1.035 0-1.611.625-1.611 1.739v9.843c0 1.201.654 1.846 1.875 1.846h5.508c.81 0 1.377-.557 1.377-1.348ZM28.85 22.256c0 .547.312 1.113.879 1.65.908.86 2.539 1.387 4.375 1.387 3.34 0 5.478-1.69 5.478-4.316 0-2.022-1.201-3.243-3.682-3.74l-1.855-.401c-1.24-.244-1.807-.762-1.807-1.494 0-.84.742-1.377 1.924-1.377 1.006 0 1.797.39 2.48 1.142.41.391.83.577 1.25.577.753 0 1.26-.489 1.26-1.202 0-.595-.302-1.181-.879-1.709-.898-.85-2.441-1.347-4.15-1.347-3.125 0-5.117 1.62-5.117 4.18 0 2.04 1.181 3.28 3.584 3.789l1.836.42c1.406.302 1.992.761 1.992 1.503 0 .918-.752 1.426-2.148 1.426-.987 0-1.954-.41-2.754-1.162-.537-.478-.938-.654-1.407-.654-.693 0-1.26.547-1.26 1.328ZM43.127 25.098c1.035 0 1.621-.635 1.621-1.739v-2.617h2.148c3.057 0 4.932-1.63 4.932-4.55 0-2.745-1.846-4.522-4.766-4.522h-3.427c-1.524 0-2.11.615-2.11 2.207v9.482c0 1.114.577 1.739 1.602 1.739Zm1.63-6.758v-4.18h1.827c1.318 0 2.05.762 2.05 2.09 0 1.543-.741 2.09-2.411 2.09h-1.465Z"/></g><rect width="75" height="41" x="-3" y="-3" stroke="#0D6EFD" stroke-width="6" rx="8"/></g></svg>