<svg xmlns="http://www.w3.org/2000/svg" width="81" height="47"><g fill="none" fill-rule="evenodd" transform="translate(6 6)"><rect width="75" height="41" x="-3" y="-3" fill="#0D6EFD" stroke="#0D6EFD" stroke-width="6" rx="8"/><g fill="#FFF" fill-rule="nonzero"><path d="M26.082 25.113c0-1.107-.793-1.886-1.928-1.886h-5.81V10.635c0-1.545-.82-2.434-2.27-2.434-1.449 0-2.256.875-2.256 2.434v13.781c0 1.682.916 2.584 2.625 2.584h7.711c1.135 0 1.928-.78 1.928-1.887ZM27.19 23.158c0 .766.437 1.559 1.23 2.31 1.271 1.204 3.555 1.942 6.125 1.942 4.676 0 7.67-2.365 7.67-6.043 0-2.83-1.682-4.539-5.154-5.236l-2.598-.56c-1.736-.342-2.53-1.067-2.53-2.092 0-1.176 1.04-1.928 2.694-1.928 1.408 0 2.516.547 3.473 1.6.574.546 1.162.806 1.75.806 1.052 0 1.763-.684 1.763-1.682 0-.834-.424-1.654-1.23-2.392-1.258-1.19-3.418-1.887-5.81-1.887-4.376 0-7.165 2.27-7.165 5.852 0 2.857 1.654 4.593 5.018 5.304l2.57.588c1.969.424 2.79 1.067 2.79 2.106 0 1.285-1.054 1.996-3.009 1.996-1.38 0-2.734-.574-3.855-1.627-.752-.67-1.313-.916-1.969-.916-.97 0-1.764.765-1.764 1.86ZM47.178 27.137c1.449 0 2.27-.889 2.27-2.434V21.04h3.007c4.28 0 6.904-2.283 6.904-6.371 0-3.842-2.584-6.33-6.672-6.33H47.89c-2.133 0-2.953.861-2.953 3.09v13.275c0 1.559.806 2.434 2.242 2.434Zm2.283-9.461v-5.852h2.557c1.845 0 2.87 1.067 2.87 2.926 0 2.16-1.038 2.926-3.376 2.926H49.46Z"/></g></g></svg>