<svg xmlns="http://www.w3.org/2000/svg" width="91.632" height="49"><g fill="none" fill-rule="evenodd" transform="translate(2 2)"><rect width="89.632" height="47" x="-1" y="-1" fill="#0D6EFD" stroke="#0D6EFD" stroke-width="2" rx="8"/><g fill="#FFF" fill-rule="nonzero"><path d="M21.011 32h11.984v-3.161h-8.15V13.68h-3.834zM43.025 32.47c4.57 0 7.388-2.298 7.388-5.929v-.013c0-2.856-1.688-4.405-5.56-5.205l-1.942-.393c-2.159-.445-3.047-1.156-3.047-2.349v-.013c0-1.37 1.257-2.234 3.148-2.247 1.93 0 3.2.914 3.415 2.222l.026.152h3.605l-.013-.165c-.24-3.06-2.755-5.32-7.033-5.32-4.062 0-6.982 2.248-6.982 5.65v.013c0 2.78 1.637 4.558 5.446 5.332l1.93.394c2.272.47 3.174 1.142 3.174 2.348v.013c0 1.41-1.41 2.387-3.454 2.387-2.145 0-3.63-.927-3.77-2.298l-.013-.127H35.65l.013.203c.215 3.25 2.983 5.345 7.363 5.345ZM54.032 32h3.834v-5.776h3.72c3.859 0 6.436-2.489 6.436-6.26v-.025c0-3.77-2.577-6.258-6.437-6.258h-7.553V32Zm6.614-15.285c2.196 0 3.491 1.155 3.491 3.237v.026c0 2.082-1.295 3.25-3.491 3.25h-2.78v-6.513h2.78Z"/></g></g></svg>